<svg width="21" height="21" viewBox="0 0 21 21" fill="none" xmlns="http://www.w3.org/2000/svg">
<path d="M14.4695 21V12.8735H17.1905L17.5978 9.71425H14.4695V7.69726C14.4695 6.78258 14.7233 6.15923 16.035 6.15923L17.708 6.15845V3.33289C17.4186 3.29446 16.4256 3.2084 15.2703 3.2084C12.8582 3.2084 11.207 4.68064 11.207 7.38444V9.71425H8.47898V12.8735H11.207V21H1.16667C0.52234 21 0 20.4777 0 19.8333V1.16667C0 0.52234 0.52234 0 1.16667 0H19.8333C20.4777 0 21 0.52234 21 1.16667V19.8333C21 20.4777 20.4777 21 19.8333 21H14.4695Z" fill="#4D4D4D"/>
</svg>
