<svg width="23" height="23" viewBox="0 0 23 23" fill="none" xmlns="http://www.w3.org/2000/svg">
<path d="M12.6816 0C13.9759 0.00213908 14.6317 0.00899336 15.1985 0.0258645L15.4217 0.0331558C15.6795 0.0423216 15.9339 0.0538219 16.2406 0.0681974C17.4644 0.124745 18.2992 0.318331 19.0324 0.602967C19.7904 0.895273 20.4306 1.29012 21.0698 1.92936C21.708 2.56858 22.103 3.21069 22.3962 3.96684C22.6798 4.69904 22.8735 5.53474 22.931 6.75857C22.9447 7.06525 22.9557 7.31964 22.9648 7.57752L22.9721 7.80073C22.9888 8.36741 22.9966 9.02338 22.999 10.3177L22.9999 11.1752C23 11.2799 23 11.388 23 11.4996L22.9999 11.824L22.9992 12.6816C22.997 13.9758 22.9902 14.6318 22.9733 15.1985L22.966 15.4217C22.9569 15.6796 22.9454 15.934 22.931 16.2406C22.8744 17.4645 22.6798 18.2992 22.3962 19.0324C22.1039 19.7905 21.708 20.4307 21.0698 21.0699C20.4306 21.7082 19.7875 22.103 19.0324 22.3962C18.2992 22.6799 17.4644 22.8735 16.2406 22.931C15.9339 22.9447 15.6795 22.9558 15.4217 22.9648L15.1985 22.9721C14.6317 22.989 13.9759 22.9966 12.6816 22.9991L11.824 23C11.7193 23 11.6112 23 11.4996 23H11.1752L10.3176 22.9992C9.02335 22.9971 8.36739 22.9902 7.8007 22.9733L7.5775 22.9661C7.31961 22.9569 7.06522 22.9454 6.75855 22.931C5.53471 22.8745 4.70094 22.6799 3.96683 22.3962C3.20971 22.104 2.56857 21.7082 1.92934 21.0699C1.29011 20.4307 0.896226 19.7876 0.602966 19.0324C0.318331 18.2992 0.125699 17.4645 0.0681975 16.2406C0.0545351 15.934 0.043391 15.6796 0.0343632 15.4217L0.0271295 15.1985C0.0103045 14.6318 0.00263379 13.9758 0.000149708 12.6816L0 10.3177C0.00213907 9.02338 0.00898182 8.36741 0.0258529 7.80073L0.0331557 7.57752C0.0423215 7.31964 0.053822 7.06525 0.0681975 6.75857C0.124733 5.53377 0.318331 4.69999 0.602966 3.96684C0.89526 3.20973 1.29011 2.56858 1.92934 1.92936C2.56857 1.29012 3.21068 0.896228 3.96683 0.602967C4.69998 0.318331 5.53376 0.1257 6.75855 0.0681974C7.06522 0.0545464 7.31961 0.0434027 7.5775 0.0343748L7.8007 0.0271408C8.36739 0.0103042 9.02335 0.00263353 10.3176 0.000149434L12.6816 0ZM11.4996 5.74941C8.32214 5.74941 5.74939 8.32496 5.74939 11.4996C5.74939 14.677 8.32494 17.2498 11.4996 17.2498C14.6771 17.2498 17.2498 14.6743 17.2498 11.4996C17.2498 8.32216 14.6742 5.74941 11.4996 5.74941ZM11.4996 8.04949C13.4051 8.04949 14.9497 9.59362 14.9497 11.4996C14.9497 13.4051 13.4056 14.9497 11.4996 14.9497C9.59411 14.9497 8.04947 13.4057 8.04947 11.4996C8.04947 9.59408 9.59354 8.04949 11.4996 8.04949ZM17.5373 4.02434C16.7446 4.02434 16.0998 4.66826 16.0998 5.46092C16.0998 6.25358 16.7437 6.89849 17.5373 6.89849C18.3299 6.89849 18.9749 6.25458 18.9749 5.46092C18.9749 4.66826 18.3289 4.02335 17.5373 4.02434Z" fill="#4D4D4D"/>
</svg>
